<svg id="logo" xmlns="http://www.w3.org/2000/svg" viewBox="0 0 322.24 217.96"><title>logo</title><path class="cls-1" d="M25.07,21.37a74.15,74.15,0,0,1,13.38-1.49,40.22,40.22,0,0,1,9.65.95,22,22,0,0,1,6.5,2.6,15.52,15.52,0,0,1,4,3.45,14.57,14.57,0,0,1,2.08,3.48,12.24,12.24,0,0,1,.8,2.67q0.14,1,.14,1.06t-0.21,1.37a8.15,8.15,0,0,1-1.58,3.17,13,13,0,0,1-4.44,3.55,28.3,28.3,0,0,1-8.77,2.55,62.16,62.16,0,0,1-14.54.14V67.13L25.4,66.8ZM32.69,38.2a49.9,49.9,0,0,0,10.73.61A23,23,0,0,0,50,37.54a9.43,9.43,0,0,0,3.43-2.13,5.21,5.21,0,0,0,1.3-2A8.73,8.73,0,0,0,55,32.48q0-.09-0.14-0.92a4.48,4.48,0,0,0-1.21-2,9.2,9.2,0,0,0-3.38-2.13,23.14,23.14,0,0,0-6.69-1.28,53.91,53.91,0,0,0-11.13.61Z" transform="translate(-25.07 -19.85)"/><path class="cls-1" d="M88.57,19.9A43,43,0,0,1,98.9,21.18a30,30,0,0,1,7.56,3,19.65,19.65,0,0,1,5.18,4.32,22.71,22.71,0,0,1,3.24,5.12A21.67,21.67,0,0,1,116.54,39a31.33,31.33,0,0,1,.45,5.15,20.35,20.35,0,0,1-.71,5.2A19.12,19.12,0,0,1,114,54.64a23,23,0,0,1-4.18,4.89,24.91,24.91,0,0,1-6.36,4,39.12,39.12,0,0,1-8.82,2.69A57.31,57.31,0,0,1,83,67.13,22.06,22.06,0,0,1,76.14,66a22.76,22.76,0,0,1-5.7-2.86A23.42,23.42,0,0,1,66,59.08a25.31,25.31,0,0,1-3.21-4.77,25,25,0,0,1-1.94-4.94,17.64,17.64,0,0,1-.66-4.58,12,12,0,0,1,.9-3.9,30.2,30.2,0,0,1,2.6-5.22A42.23,42.23,0,0,1,67.84,30a32.51,32.51,0,0,1,5.65-5.12,29.88,29.88,0,0,1,7-3.68A21.65,21.65,0,0,1,88.57,19.9ZM107.1,51.67A23.33,23.33,0,0,0,108.43,45a16.63,16.63,0,0,0-.66-5.46,13.3,13.3,0,0,0-2.22-4.3A16.52,16.52,0,0,0,102.21,32a19.46,19.46,0,0,0-4-2.22A26.58,26.58,0,0,0,94,28.46a42.15,42.15,0,0,0-4.37-.66,26.88,26.88,0,0,0-4.78,0,23.62,23.62,0,0,0-4.85.9,16.19,16.19,0,0,0-4.54,2.15,17.27,17.27,0,0,0-3.9,3.71,19,19,0,0,0-2.91,5.58,8.79,8.79,0,0,0-.35,4.8,14.34,14.34,0,0,0,1.82,4.56,21.32,21.32,0,0,0,3.26,4.09,33.65,33.65,0,0,0,4,3.38,29.62,29.62,0,0,0,3.9,2.41,12.5,12.5,0,0,0,3.1,1.18,22.06,22.06,0,0,0,3.92.45,29.15,29.15,0,0,0,9-1.16A19.33,19.33,0,0,0,101.53,58a14.26,14.26,0,0,0,3.4-2.69A10.16,10.16,0,0,0,107.1,51.67Z" transform="translate(-25.07 -19.85)"/><path class="cls-1" d="M147.91,19.9a43,43,0,0,1,10.33,1.28,30,30,0,0,1,7.56,3A19.65,19.65,0,0,1,171,28.54a22.71,22.71,0,0,1,3.24,5.12A21.67,21.67,0,0,1,175.87,39a31.33,31.33,0,0,1,.45,5.15,20.35,20.35,0,0,1-.71,5.2,19.12,19.12,0,0,1-2.32,5.27,23,23,0,0,1-4.18,4.89,24.91,24.91,0,0,1-6.36,4,39.12,39.12,0,0,1-8.82,2.69,57.31,57.31,0,0,1-11.56.87,22.06,22.06,0,0,1-6.9-1.13,22.76,22.76,0,0,1-5.7-2.86,23.42,23.42,0,0,1-4.47-4.06,25.31,25.31,0,0,1-3.21-4.77,25,25,0,0,1-1.94-4.94,17.64,17.64,0,0,1-.66-4.58,12,12,0,0,1,.9-3.9,30.2,30.2,0,0,1,2.6-5.22A42.23,42.23,0,0,1,127.17,30a32.51,32.51,0,0,1,5.65-5.12,29.88,29.88,0,0,1,7-3.68A21.65,21.65,0,0,1,147.91,19.9Zm18.53,31.77A23.33,23.33,0,0,0,167.76,45a16.63,16.63,0,0,0-.66-5.46,13.3,13.3,0,0,0-2.22-4.3A16.52,16.52,0,0,0,161.55,32a19.46,19.46,0,0,0-4-2.22,26.58,26.58,0,0,0-4.21-1.35A42.15,42.15,0,0,0,149,27.8a26.88,26.88,0,0,0-4.78,0,23.62,23.62,0,0,0-4.85.9,16.19,16.19,0,0,0-4.54,2.15,17.27,17.27,0,0,0-3.9,3.71A19,19,0,0,0,128,40.09a8.79,8.79,0,0,0-.35,4.8,14.34,14.34,0,0,0,1.82,4.56,21.32,21.32,0,0,0,3.26,4.09,33.65,33.65,0,0,0,4,3.38,29.62,29.62,0,0,0,3.9,2.41,12.5,12.5,0,0,0,3.1,1.18,22.06,22.06,0,0,0,3.92.45,29.15,29.15,0,0,0,9-1.16A19.33,19.33,0,0,0,160.86,58a14.26,14.26,0,0,0,3.4-2.69A10.16,10.16,0,0,0,166.44,51.67Z" transform="translate(-25.07 -19.85)"/><path class="cls-1" d="M204.74,41.22a27,27,0,0,1,3.92,2.84,6.84,6.84,0,0,1,2.13,3q0.62,2.32,1.16,4.78t1.23,6.26q0.68,3.81,1.44,9.05l-6.1-.61a69.09,69.09,0,0,0-1-8.27,47.18,47.18,0,0,0-1.28-5.3,20.46,20.46,0,0,0-1.58-3.69A10.17,10.17,0,0,0,203,47.61a27.46,27.46,0,0,0-2.51-1.82q-1.42-.92-3-1.82t-3.24-1.75h-0.66l-1.66,0-2.17-.07q-1.18,0-2.27-.19l0.66,24.87-7.33-.61-0.33-45.29a77.87,77.87,0,0,1,12.88-1,42.93,42.93,0,0,1,9.17,1,22.11,22.11,0,0,1,6.12,2.34,14,14,0,0,1,3.69,3,11.62,11.62,0,0,1,1.84,3,8.36,8.36,0,0,1,.64,2.29q0.07,0.88.07,0.92a7,7,0,0,1-.87,3.38,8.51,8.51,0,0,1-2.2,2.51A12.62,12.62,0,0,1,208.61,40,29.28,29.28,0,0,1,204.74,41.22Zm-16.6-5a42.69,42.69,0,0,0,9.62,1,17.81,17.81,0,0,0,5.77-1,7.06,7.06,0,0,0,2.91-2,4.46,4.46,0,0,0,1-1.94q0.12-.8.12-0.85s-0.06-.31-0.19-0.85a4.79,4.79,0,0,0-1.13-1.89,7.4,7.4,0,0,0-3-1.87,16.7,16.7,0,0,0-5.62-.83,39.27,39.27,0,0,0-9.2,1.28Z" transform="translate(-25.07 -19.85)"/><path class="cls-1" d="M25.07,77l9.46-.33,0.66,47.23-9.46-.66Z" transform="translate(-25.07 -19.85)"/><path class="cls-1" d="M40.77,76.64L47.25,77l17.82,37.22L81.24,78.24l5.2,0.33L88,123.87l-5.2-.33-2.6-28.48L68,123.21H61.15L47.58,93.78l0.33,29.09-7.47.33Z" transform="translate(-25.07 -19.85)"/><path class="cls-1" d="M92.73,78.1a74.15,74.15,0,0,1,13.38-1.49,40.22,40.22,0,0,1,9.65.95,22,22,0,0,1,6.5,2.6,15.52,15.52,0,0,1,4,3.45,14.57,14.57,0,0,1,2.08,3.48,12.24,12.24,0,0,1,.8,2.67q0.14,1,.14,1.06t-0.21,1.37a8.15,8.15,0,0,1-1.58,3.17A13,13,0,0,1,123,98.91a28.3,28.3,0,0,1-8.77,2.55,62.16,62.16,0,0,1-14.54.14v22.27l-6.67-.33Zm7.61,16.83a49.9,49.9,0,0,0,10.73.61,23,23,0,0,0,6.6-1.28,9.43,9.43,0,0,0,3.43-2.13,5.21,5.21,0,0,0,1.3-2,8.73,8.73,0,0,0,.21-0.92q0-.09-0.14-0.92a4.48,4.48,0,0,0-1.21-2,9.2,9.2,0,0,0-3.38-2.13,23.14,23.14,0,0,0-6.69-1.28,53.91,53.91,0,0,0-11.13.61Z" transform="translate(-25.07 -19.85)"/><path class="cls-1" d="M131.36,76.64h6.52a136.22,136.22,0,0,0-.5,15.23,83.24,83.24,0,0,0,1,11,38,38,0,0,0,1.91,7.42,19.62,19.62,0,0,0,2.39,4.58,10.84,10.84,0,0,0,2.32,2.39,5.92,5.92,0,0,0,1.75.92l0.71,0.17,0.71-.09a5.31,5.31,0,0,0,1.77-.76,9.39,9.39,0,0,0,2.34-2.17,17.46,17.46,0,0,0,2.39-4.35,37.14,37.14,0,0,0,2-7.27,79.14,79.14,0,0,0,1-11,149.11,149.11,0,0,0-.38-15.4h5.91a121.94,121.94,0,0,1,.17,17.33A71.59,71.59,0,0,1,161.5,107a35.27,35.27,0,0,1-3.12,8.29,19.82,19.82,0,0,1-3.71,5,15.49,15.49,0,0,1-3.55,2.53,9,9,0,0,1-2.65.92l-1,.12-1-.17a10.14,10.14,0,0,1-2.67-1,15.6,15.6,0,0,1-3.57-2.64,21.28,21.28,0,0,1-3.73-5.12,37.15,37.15,0,0,1-3.19-8.41A70.59,70.59,0,0,1,131.31,94,128.07,128.07,0,0,1,131.36,76.64Z" transform="translate(-25.07 -19.85)"/><path class="cls-1" d="M168.61,76.64l7.9,0.33,0.33,38.35h24.25v8.55l-32.81-.66Z" transform="translate(-25.07 -19.85)"/><path class="cls-1" d="M235.51,91.25a14.5,14.5,0,0,0-3.83-4.44,18,18,0,0,0-4.14-2.36,19.77,19.77,0,0,0-4.7-1.09q-3.12-.14-5.79-0.33a24.24,24.24,0,0,0-4.59,0,5.09,5.09,0,0,0-3,1.25,4.49,4.49,0,0,0,.4,6,11.33,11.33,0,0,0,3.21,2.08A30,30,0,0,0,217.62,94q2.53,0.69,5.22,1.25t5.39,1.09q2.7,0.52,4.92,1A12.08,12.08,0,0,1,237,98.91a11.92,11.92,0,0,1,2.69,2.34A11.4,11.4,0,0,1,241.4,104a17.36,17.36,0,0,1,1,2.84,16.68,16.68,0,0,1,.43,2.53q0.09,1.16.09,1.87t-0.09,1.94a8.81,8.81,0,0,1-.66,2.62,10.6,10.6,0,0,1-1.8,2.84,11.25,11.25,0,0,1-3.5,2.6,23.39,23.39,0,0,1-5.75,1.89,42.45,42.45,0,0,1-8.58.73l-1.13,0q-1.09,0-3-.33a35.73,35.73,0,0,1-4.23-.92,31.45,31.45,0,0,1-4.82-1.8,23.14,23.14,0,0,1-4.75-3,20.49,20.49,0,0,1-4-4.4,18.84,18.84,0,0,1-2.7-6.15l8.23-.33a16.11,16.11,0,0,0,3.21,5.08,16.38,16.38,0,0,0,3.95,3.1,17.8,17.8,0,0,0,3.88,1.58,18.76,18.76,0,0,0,2.93.59l1.16,0.09q1.46,0,3.59-.09a16.37,16.37,0,0,0,4.11-.71,8.47,8.47,0,0,0,3.38-1.94,5,5,0,0,0,1.39-3.78,8.65,8.65,0,0,0-.8-4,6.89,6.89,0,0,0-2.25-2.55,11.28,11.28,0,0,0-3.4-1.54q-2-.54-4.33-1t-5-.85a50.68,50.68,0,0,1-5.37-1.18,33.81,33.81,0,0,1-6.78-2.55,18.88,18.88,0,0,1-4.33-3,12.09,12.09,0,0,1-2.53-3.43A18.74,18.74,0,0,1,197.55,87a2.59,2.59,0,0,1,.38-1.42,9,9,0,0,1,1.61-2.2,17.61,17.61,0,0,1,3-2.48,21.32,21.32,0,0,1,4.73-2.27A37.31,37.31,0,0,1,213.88,77a44.91,44.91,0,0,1,8.63-.4l1.23,0.09q1.18,0.1,3.17.4a41,41,0,0,1,4.28.92,29.87,29.87,0,0,1,4.59,1.65,17.22,17.22,0,0,1,4.11,2.6,10.89,10.89,0,0,1,2.84,3.78,9.93,9.93,0,0,1,.73,5.15h-7.94Z" transform="translate(-25.07 -19.85)"/><path class="cls-1" d="M247.85,76.64l39.43,0.66,1.32,7.14h-31V99.09l25.77,0.33L283.08,106l-24.16.95v8.51l29.36,0.33-0.66,8.13H247.85V76.64Z" transform="translate(-25.07 -19.85)"/><path class="cls-1" d="M52,133.37l1.42,0a31.46,31.46,0,0,1,3.57.4,37.34,37.34,0,0,1,4.73,1.09A23.92,23.92,0,0,1,66.63,137a13.07,13.07,0,0,1,4,3.43l-4.16,6.1a32,32,0,0,0-6.29-3,38.48,38.48,0,0,0-5.2-1.4,21.07,21.07,0,0,0-3.55-.4H50.13a18.06,18.06,0,0,0-12,5.25A15.64,15.64,0,0,0,35,151.43a12.74,12.74,0,0,0-1.23,4.4,15.46,15.46,0,0,0,.14,3.12,18.6,18.6,0,0,0,.88,3.59,17.72,17.72,0,0,0,1.75,3.62,13.84,13.84,0,0,0,2.81,3.21,14.72,14.72,0,0,0,4,2.39,16.56,16.56,0,0,0,5.46,1.09h1.32a29.76,29.76,0,0,0,3.26-.24,23.7,23.7,0,0,0,4.14-.87,14,14,0,0,0,4-1.94,7.5,7.5,0,0,0,2.72-3.38l6.43,5.82a18.37,18.37,0,0,1-4.09,3,35.79,35.79,0,0,1-4.8,2.22A44.72,44.72,0,0,1,56.94,179q-2.36.59-4.23,0.95t-4.18.59a19.91,19.91,0,0,1-17.37-7.14,25,25,0,0,1-3.36-5.22,27.24,27.24,0,0,1-2-5.91,28.26,28.26,0,0,1-.69-6.12,16.62,16.62,0,0,1,1.09-5.91,21.94,21.94,0,0,1,3-5.41,26.35,26.35,0,0,1,4.47-4.63,30.48,30.48,0,0,1,5.58-3.62,31.45,31.45,0,0,1,6.29-2.36A26,26,0,0,1,52,133.37Z" transform="translate(-25.07 -19.85)"/><path class="cls-1" d="M95.85,133.37a43,43,0,0,1,10.33,1.28,30,30,0,0,1,7.56,3,19.65,19.65,0,0,1,5.18,4.32,22.71,22.71,0,0,1,3.24,5.13,21.67,21.67,0,0,1,1.65,5.36,31.33,31.33,0,0,1,.45,5.15,20.35,20.35,0,0,1-.71,5.2,19.12,19.12,0,0,1-2.32,5.27,23,23,0,0,1-4.18,4.89,24.91,24.91,0,0,1-6.36,4,39.12,39.12,0,0,1-8.82,2.69,57.31,57.31,0,0,1-11.56.87,22.06,22.06,0,0,1-6.9-1.13,22.76,22.76,0,0,1-5.7-2.86,23.42,23.42,0,0,1-4.47-4.06A25.31,25.31,0,0,1,70,167.78a25,25,0,0,1-1.94-4.94,17.64,17.64,0,0,1-.66-4.58,12,12,0,0,1,.9-3.9,30.2,30.2,0,0,1,2.6-5.22,42.23,42.23,0,0,1,4.18-5.65,32.51,32.51,0,0,1,5.65-5.12,29.88,29.88,0,0,1,7-3.68A21.65,21.65,0,0,1,95.85,133.37Zm18.53,31.77a23.33,23.33,0,0,0,1.32-6.67A16.63,16.63,0,0,0,115,153a13.3,13.3,0,0,0-2.22-4.3,16.52,16.52,0,0,0-3.33-3.21,19.46,19.46,0,0,0-4-2.22,26.58,26.58,0,0,0-4.21-1.35,42.15,42.15,0,0,0-4.37-.66,26.88,26.88,0,0,0-4.78,0,23.62,23.62,0,0,0-4.85.9,16.19,16.19,0,0,0-4.54,2.15,17.27,17.27,0,0,0-3.9,3.71,19,19,0,0,0-2.91,5.58,8.79,8.79,0,0,0-.35,4.8,14.34,14.34,0,0,0,1.82,4.56A21.32,21.32,0,0,0,80.67,167a33.65,33.65,0,0,0,4,3.38,29.62,29.62,0,0,0,3.9,2.41,12.5,12.5,0,0,0,3.1,1.18,22.06,22.06,0,0,0,3.92.45,29.15,29.15,0,0,0,9-1.16,19.33,19.33,0,0,0,4.21-1.77,14.26,14.26,0,0,0,3.4-2.69A10.16,10.16,0,0,0,114.39,165.15Z" transform="translate(-25.07 -19.85)"/><path class="cls-1" d="M128.71,134l7-.33,20.95,39.82-0.33-40.15,5.44,0.33,1.94,46.57-11.25-.33-17-30.51,0.95,30.84-8,.33Z" transform="translate(-25.07 -19.85)"/><path class="cls-1" d="M215.09,133.37v7.18H195.19l0.33,40.05h-6.86L188,140.89H163.89L163.22,134Z" transform="translate(-25.07 -19.85)"/><path class="cls-1" d="M241.47,154.7a27,27,0,0,1,3.92,2.84,6.85,6.85,0,0,1,2.13,3q0.61,2.32,1.16,4.78t1.23,6.26q0.68,3.81,1.44,9.05l-6.1-.61a69.06,69.06,0,0,0-1-8.27,47,47,0,0,0-1.28-5.3,20.46,20.46,0,0,0-1.58-3.69,10.21,10.21,0,0,0-1.65-1.65,27.6,27.6,0,0,0-2.51-1.82q-1.42-.92-3-1.82T231,155.69h-0.66l-1.66,0-2.17-.07q-1.18,0-2.27-.19l0.66,24.87-7.33-.61-0.33-45.29a77.86,77.86,0,0,1,12.88-1,42.93,42.93,0,0,1,9.17,1,22.11,22.11,0,0,1,6.12,2.34,14,14,0,0,1,3.69,3,11.63,11.63,0,0,1,1.84,3,8.39,8.39,0,0,1,.64,2.29q0.07,0.88.07,0.92a7,7,0,0,1-.87,3.38,8.53,8.53,0,0,1-2.2,2.51,12.59,12.59,0,0,1-3.21,1.77A29.19,29.19,0,0,1,241.47,154.7Zm-16.6-5a42.7,42.7,0,0,0,9.62,1,17.81,17.81,0,0,0,5.77-1,7.06,7.06,0,0,0,2.91-2,4.45,4.45,0,0,0,1-1.94c0.08-.54.12-0.82,0.12-0.85s-0.06-.31-0.19-0.85a4.81,4.81,0,0,0-1.13-1.89,7.4,7.4,0,0,0-3-1.87,16.71,16.71,0,0,0-5.63-.83,39.27,39.27,0,0,0-9.2,1.28Z" transform="translate(-25.07 -19.85)"/><path class="cls-1" d="M280.48,133.37a43,43,0,0,1,10.33,1.28,30,30,0,0,1,7.56,3,19.67,19.67,0,0,1,5.18,4.32,22.72,22.72,0,0,1,3.24,5.13,21.71,21.71,0,0,1,1.66,5.36,31.38,31.38,0,0,1,.45,5.15,20.37,20.37,0,0,1-.71,5.2,19.12,19.12,0,0,1-2.32,5.27,23,23,0,0,1-4.18,4.89,24.91,24.91,0,0,1-6.36,4,39.1,39.1,0,0,1-8.82,2.69,57.3,57.3,0,0,1-11.56.87,22.06,22.06,0,0,1-6.9-1.13,22.74,22.74,0,0,1-5.7-2.86,23.42,23.42,0,0,1-4.47-4.06,25.28,25.28,0,0,1-3.21-4.77,24.92,24.92,0,0,1-1.94-4.94,17.62,17.62,0,0,1-.66-4.58,12,12,0,0,1,.9-3.9,30.24,30.24,0,0,1,2.6-5.22,42.27,42.27,0,0,1,4.18-5.65,32.53,32.53,0,0,1,5.65-5.12,29.87,29.87,0,0,1,7-3.68A21.64,21.64,0,0,1,280.48,133.37ZM299,165.15a23.31,23.31,0,0,0,1.32-6.67,16.6,16.6,0,0,0-.66-5.46,13.31,13.31,0,0,0-2.22-4.3,16.52,16.52,0,0,0-3.33-3.21,19.48,19.48,0,0,0-4-2.22,26.6,26.6,0,0,0-4.21-1.35,42.16,42.16,0,0,0-4.37-.66,26.88,26.88,0,0,0-4.78,0,23.61,23.61,0,0,0-4.85.9,16.2,16.2,0,0,0-4.54,2.15,17.29,17.29,0,0,0-3.9,3.71,19,19,0,0,0-2.91,5.58,8.79,8.79,0,0,0-.35,4.8,14.33,14.33,0,0,0,1.82,4.56A21.34,21.34,0,0,0,265.3,167a33.65,33.65,0,0,0,4,3.38,29.62,29.62,0,0,0,3.9,2.41,12.51,12.51,0,0,0,3.1,1.18,22.07,22.07,0,0,0,3.92.45,29.15,29.15,0,0,0,9-1.16,19.33,19.33,0,0,0,4.21-1.77,14.27,14.27,0,0,0,3.4-2.69A10.16,10.16,0,0,0,299,165.15Z" transform="translate(-25.07 -19.85)"/><path class="cls-1" d="M313.43,133.37l7.9,0.33,0.33,38.35h24.25v8.55l-32.81-.66Z" transform="translate(-25.07 -19.85)"/><path class="cls-1" d="M31.51,222.09l6.59,13.47-2,.19-2.58-5-4.68-.55-1.61,5.54H25.07L29,222.36Zm-2.21,6.51L33,229.1l-2.34-4.57Z" transform="translate(-25.07 -19.85)"/><path class="cls-1" d="M39.09,222.28l2-.1,6.06,11.51-0.1-11.61,1.57,0.1,0.56,13.47-3.25-.1L41,226.73l0.27,8.92-2.32.1Z" transform="translate(-25.07 -19.85)"/><path class="cls-1" d="M67,213.89l11.53,23.57L75,237.8l-4.52-8.73-8.18-1-2.82,9.69H55.78l6.79-23.42Zm-3.88,11.39,6.46,0.88-4.09-8Z" transform="translate(-25.07 -19.85)"/><path class="cls-1" d="M76.43,213.89h3.3a69,69,0,0,0-.25,7.71,42.14,42.14,0,0,0,.49,5.54,19.24,19.24,0,0,0,1,3.75,9.94,9.94,0,0,0,1.21,2.32,5.47,5.47,0,0,0,1.17,1.21,3,3,0,0,0,.89.47L84.56,235l0.36,0a2.67,2.67,0,0,0,.9-0.38,4.74,4.74,0,0,0,1.18-1.1,8.86,8.86,0,0,0,1.21-2.2,18.79,18.79,0,0,0,1-3.68,40,40,0,0,0,.53-5.54,75.46,75.46,0,0,0-.19-7.79h3a61.7,61.7,0,0,1,.08,8.77,36.22,36.22,0,0,1-.93,6.27,17.84,17.84,0,0,1-1.58,4.19A10,10,0,0,1,88.22,236a7.82,7.82,0,0,1-1.79,1.28,4.58,4.58,0,0,1-1.34.47l-0.53.06L84,237.71a5.13,5.13,0,0,1-1.35-.51,7.88,7.88,0,0,1-1.81-1.34A10.78,10.78,0,0,1,79,233.27,18.8,18.8,0,0,1,77.37,229a35.75,35.75,0,0,1-1-6.32A64.82,64.82,0,0,1,76.43,213.89Z" transform="translate(-25.07 -19.85)"/><path class="cls-1" d="M113.39,227.27s0,0.27,0,.72a10.24,10.24,0,0,1-.35,1.79,11.26,11.26,0,0,1-1,2.38,10,10,0,0,1-1.93,2.46,10.47,10.47,0,0,1-3.19,2,15.81,15.81,0,0,1-4.77,1.08,27.26,27.26,0,0,1-6.66-.37l-0.33-23.14a22.29,22.29,0,0,1,6.71-.2,14.31,14.31,0,0,1,4.82,1.5,11.27,11.27,0,0,1,3.24,2.6,13.31,13.31,0,0,1,2,3.09,16.82,16.82,0,0,1,1,3,14.77,14.77,0,0,1,.4,2.23C113.37,226.95,113.39,227.24,113.39,227.27Zm-13.54,6.34a15.32,15.32,0,0,0,4.4-.78,8.66,8.66,0,0,0,2.66-1.44,5.72,5.72,0,0,0,1.36-1.61,4.08,4.08,0,0,0,.49-1.32c0-.33.06-0.52,0.06-0.55s0-.24,0-0.66a16.35,16.35,0,0,0-.22-1.7,17.09,17.09,0,0,0-.55-2.25,11.14,11.14,0,0,0-1-2.32,6.84,6.84,0,0,0-1.67-1.93,5.51,5.51,0,0,0-2.48-1.05,7.87,7.87,0,0,0-3.46.29Z" transform="translate(-25.07 -19.85)"/><path class="cls-1" d="M115.42,214.06l4.79-.17,0.33,23.9-4.79-.33Z" transform="translate(-25.07 -19.85)"/><path class="cls-1" d="M136.67,213.89a21.59,21.59,0,0,1,5.22.65,15.39,15.39,0,0,1,3.83,1.54,9.88,9.88,0,0,1,2.63,2.19,11.16,11.16,0,0,1,1.63,2.59,11.68,11.68,0,0,1,.84,2.71,15.11,15.11,0,0,1,.24,2.61,10.31,10.31,0,0,1-.36,2.63,9.69,9.69,0,0,1-1.17,2.67,11.59,11.59,0,0,1-2.12,2.47,12.6,12.6,0,0,1-3.22,2,19.83,19.83,0,0,1-4.46,1.36,29,29,0,0,1-5.85.44,11.2,11.2,0,0,1-3.49-.57,11.54,11.54,0,0,1-2.88-1.45,11.85,11.85,0,0,1-2.26-2.06,12.79,12.79,0,0,1-1.63-2.41,12.64,12.64,0,0,1-1-2.5,8.92,8.92,0,0,1-.33-2.32,6.06,6.06,0,0,1,.45-2,15.27,15.27,0,0,1,1.32-2.64,21.35,21.35,0,0,1,2.12-2.86,16.45,16.45,0,0,1,2.86-2.59,15.15,15.15,0,0,1,3.52-1.86A11,11,0,0,1,136.67,213.89ZM146,230a11.81,11.81,0,0,0,.67-3.37,8.42,8.42,0,0,0-.33-2.76,6.72,6.72,0,0,0-1.12-2.18,8.35,8.35,0,0,0-1.69-1.63,9.86,9.86,0,0,0-2-1.12,13.52,13.52,0,0,0-2.13-.68,21.31,21.31,0,0,0-2.21-.33,13.65,13.65,0,0,0-2.42,0,11.92,11.92,0,0,0-2.45.45,8.2,8.2,0,0,0-2.3,1.09,8.73,8.73,0,0,0-2,1.88,9.61,9.61,0,0,0-1.47,2.82,4.45,4.45,0,0,0-.18,2.43,7.25,7.25,0,0,0,.92,2.31,10.75,10.75,0,0,0,1.65,2.07,17,17,0,0,0,2,1.71,14.88,14.88,0,0,0,2,1.22,6.31,6.31,0,0,0,1.57.6,11.16,11.16,0,0,0,2,.23,14.78,14.78,0,0,0,4.57-.59,9.77,9.77,0,0,0,2.13-.9,7.22,7.22,0,0,0,1.72-1.36A5.15,5.15,0,0,0,146,230Z" transform="translate(-25.07 -19.85)"/><path class="cls-1" d="M162.2,224.33a12.93,12.93,0,0,1,4.06,1.36,9.23,9.23,0,0,1,2.45,1.91,7.26,7.26,0,0,1,1.26,2,6.66,6.66,0,0,1,.47,1.57c0,0.39.07,0.6,0.07,0.63a3.9,3.9,0,0,1-.84,2.52,6.3,6.3,0,0,1-2.24,1.71,14,14,0,0,1-3.19,1,32.35,32.35,0,0,1-3.71.54q-1.91.17-3.8,0.18t-3.47,0V213.89a45.8,45.8,0,0,1,7,.29,25.94,25.94,0,0,1,4.7,1,10.7,10.7,0,0,1,2.88,1.38,6.9,6.9,0,0,1,1.51,1.41,4,4,0,0,1,.67,1.54s0,0.2,0,.5a3.77,3.77,0,0,1-.41,1.18,4.62,4.62,0,0,1-1.16,1.42,6.82,6.82,0,0,1-2.31,1.2A12.49,12.49,0,0,1,162.2,224.33ZM156.89,235a33.74,33.74,0,0,0,5.08-.51,14,14,0,0,0,3.07-.9,5.82,5.82,0,0,0,1.58-1,2.07,2.07,0,0,0,.59-0.8c0.06-.21.08-0.32,0.08-0.33s0-.15-0.08-0.41a2.76,2.76,0,0,0-.59-1,5.53,5.53,0,0,0-1.58-1.23,12.77,12.77,0,0,0-3.07-1.11,26.42,26.42,0,0,0-5.08-.65V235Zm0.24-18.13v5.77a23.77,23.77,0,0,0,4-.36,11.08,11.08,0,0,0,2.43-.71,4.09,4.09,0,0,0,1.24-.82,1.92,1.92,0,0,0,.47-0.67,2.72,2.72,0,0,0,.07-0.28s0-.11-0.07-0.28a1.93,1.93,0,0,0-.47-0.67,4.22,4.22,0,0,0-1.24-.83,11.25,11.25,0,0,0-2.43-.75A23.06,23.06,0,0,0,157.12,216.91Z" transform="translate(-25.07 -19.85)"/><path class="cls-1" d="M185.74,213.89a21.59,21.59,0,0,1,5.22.65,15.38,15.38,0,0,1,3.83,1.54,9.87,9.87,0,0,1,2.63,2.19,11.14,11.14,0,0,1,1.63,2.59,11.7,11.7,0,0,1,.84,2.71,15.11,15.11,0,0,1,.24,2.61,10.31,10.31,0,0,1-.36,2.63,9.68,9.68,0,0,1-1.17,2.67,11.61,11.61,0,0,1-2.12,2.47,12.58,12.58,0,0,1-3.22,2,19.83,19.83,0,0,1-4.46,1.36,29,29,0,0,1-5.85.44,11.19,11.19,0,0,1-3.49-.57,11.54,11.54,0,0,1-2.88-1.45,11.85,11.85,0,0,1-2.26-2.06,12.79,12.79,0,0,1-1.63-2.41,12.64,12.64,0,0,1-1-2.5,8.92,8.92,0,0,1-.33-2.32,6.06,6.06,0,0,1,.45-2,15.27,15.27,0,0,1,1.32-2.64,21.35,21.35,0,0,1,2.12-2.86,16.45,16.45,0,0,1,2.86-2.59,15.15,15.15,0,0,1,3.52-1.86A11,11,0,0,1,185.74,213.89ZM195.12,230a11.79,11.79,0,0,0,.67-3.37,8.41,8.41,0,0,0-.33-2.76,6.71,6.71,0,0,0-1.12-2.18,8.36,8.36,0,0,0-1.69-1.63,9.85,9.85,0,0,0-2-1.12,13.53,13.53,0,0,0-2.13-.68,21.37,21.37,0,0,0-2.21-.33,13.66,13.66,0,0,0-2.42,0,11.93,11.93,0,0,0-2.45.45,8.2,8.2,0,0,0-2.3,1.09,8.73,8.73,0,0,0-2,1.88,9.61,9.61,0,0,0-1.47,2.82,4.45,4.45,0,0,0-.18,2.43,7.25,7.25,0,0,0,.92,2.31,10.75,10.75,0,0,0,1.65,2.07,17,17,0,0,0,2,1.71,14.91,14.91,0,0,0,2,1.22,6.31,6.31,0,0,0,1.57.6,11.16,11.16,0,0,0,2,.23,14.79,14.79,0,0,0,4.57-.59,9.77,9.77,0,0,0,2.13-.9,7.2,7.2,0,0,0,1.72-1.36A5.15,5.15,0,0,0,195.12,230Z" transform="translate(-25.07 -19.85)"/><path class="cls-1" d="M215.77,213.89a21.59,21.59,0,0,1,5.22.65,15.38,15.38,0,0,1,3.83,1.54,9.87,9.87,0,0,1,2.63,2.19,11.14,11.14,0,0,1,1.63,2.59,11.7,11.7,0,0,1,.84,2.71,15.11,15.11,0,0,1,.24,2.61,10.31,10.31,0,0,1-.36,2.63,9.68,9.68,0,0,1-1.17,2.67,11.61,11.61,0,0,1-2.12,2.47,12.58,12.58,0,0,1-3.22,2,19.83,19.83,0,0,1-4.46,1.36,29,29,0,0,1-5.85.44,11.19,11.19,0,0,1-3.49-.57,11.52,11.52,0,0,1-2.88-1.45,11.87,11.87,0,0,1-2.26-2.06,12.84,12.84,0,0,1-1.63-2.41,12.67,12.67,0,0,1-1-2.5,8.92,8.92,0,0,1-.33-2.32,6.07,6.07,0,0,1,.45-2,15.34,15.34,0,0,1,1.32-2.64,21.39,21.39,0,0,1,2.12-2.86,16.45,16.45,0,0,1,2.86-2.59,15.14,15.14,0,0,1,3.52-1.86A11,11,0,0,1,215.77,213.89ZM225.14,230a11.79,11.79,0,0,0,.67-3.37,8.41,8.41,0,0,0-.33-2.76,6.71,6.71,0,0,0-1.12-2.18,8.36,8.36,0,0,0-1.69-1.63,9.85,9.85,0,0,0-2-1.12,13.53,13.53,0,0,0-2.13-.68,21.37,21.37,0,0,0-2.21-.33,13.66,13.66,0,0,0-2.42,0,11.93,11.93,0,0,0-2.45.45,8.2,8.2,0,0,0-2.3,1.09,8.72,8.72,0,0,0-2,1.88,9.6,9.6,0,0,0-1.47,2.82,4.46,4.46,0,0,0-.18,2.43,7.27,7.27,0,0,0,.92,2.31,10.75,10.75,0,0,0,1.65,2.07,16.9,16.9,0,0,0,2,1.71,14.91,14.91,0,0,0,2,1.22,6.31,6.31,0,0,0,1.57.6,11.16,11.16,0,0,0,2,.23,14.79,14.79,0,0,0,4.57-.59,9.77,9.77,0,0,0,2.13-.9,7.2,7.2,0,0,0,1.72-1.36A5.15,5.15,0,0,0,225.14,230Z" transform="translate(-25.07 -19.85)"/><path class="cls-1" d="M236.6,224.2l9.45-10,3.33,1.82-6.63,7.48,4.64,14.27h-3.66l-3.66-12L236.6,229l-0.5,8.63-3.83-.17,0.17-23.57,4.47,0.5Z" transform="translate(-25.07 -19.85)"/><path class="cls-1" d="M256,222.51a21.48,21.48,0,0,1,3.87-.43,11.68,11.68,0,0,1,2.79.27,6.39,6.39,0,0,1,1.88.75,4.5,4.5,0,0,1,1.16,1,4.24,4.24,0,0,1,.6,1,3.58,3.58,0,0,1,.23.77l0,0.31s0,0.15-.06.4a2.36,2.36,0,0,1-.46.92,3.77,3.77,0,0,1-1.29,1,8.18,8.18,0,0,1-2.54.74,18,18,0,0,1-4.2,0v6.44l-1.93-.1Zm2.2,4.87a14.44,14.44,0,0,0,3.1.18,6.64,6.64,0,0,0,1.91-.37,2.71,2.71,0,0,0,1-.62,1.51,1.51,0,0,0,.38-0.58,2.51,2.51,0,0,0,.06-0.27s0-.11,0-0.27a1.3,1.3,0,0,0-.35-0.58,2.67,2.67,0,0,0-1-.62,6.74,6.74,0,0,0-1.93-.37,15.65,15.65,0,0,0-3.22.18Z" transform="translate(-25.07 -19.85)"/><path class="cls-1" d="M274.39,222.09a12.45,12.45,0,0,1,3,.37,8.68,8.68,0,0,1,2.19.88,5.69,5.69,0,0,1,1.5,1.25,6.55,6.55,0,0,1,.94,1.48,6.28,6.28,0,0,1,.48,1.55,9.13,9.13,0,0,1,.13,1.49,5.89,5.89,0,0,1-.21,1.5,5.54,5.54,0,0,1-.67,1.52,6.68,6.68,0,0,1-1.21,1.41,7.23,7.23,0,0,1-1.84,1.17,11.31,11.31,0,0,1-2.55.78,16.55,16.55,0,0,1-3.34.25,6.34,6.34,0,0,1-2-.33,6.54,6.54,0,0,1-1.65-.83,6.74,6.74,0,0,1-1.29-1.17,7.31,7.31,0,0,1-1.49-2.81,5.09,5.09,0,0,1-.19-1.32,3.48,3.48,0,0,1,.26-1.13,8.72,8.72,0,0,1,.75-1.51,12.16,12.16,0,0,1,1.21-1.63,9.39,9.39,0,0,1,1.63-1.48,8.63,8.63,0,0,1,2-1.07A6.26,6.26,0,0,1,274.39,222.09Zm5.36,9.19a6.77,6.77,0,0,0,.38-1.93,4.83,4.83,0,0,0-.19-1.58,3.86,3.86,0,0,0-.64-1.24,4.82,4.82,0,0,0-1-.93,5.64,5.64,0,0,0-1.16-.64,7.83,7.83,0,0,0-1.22-.39,12.25,12.25,0,0,0-1.26-.19,7.84,7.84,0,0,0-1.38,0,6.87,6.87,0,0,0-1.4.26,4.7,4.7,0,0,0-1.31.62,5,5,0,0,0-1.13,1.07,5.5,5.5,0,0,0-.84,1.61,2.54,2.54,0,0,0-.1,1.39,4.16,4.16,0,0,0,.53,1.32,6.16,6.16,0,0,0,.94,1.18,9.78,9.78,0,0,0,1.15,1,8.58,8.58,0,0,0,1.13.7,3.59,3.59,0,0,0,.9.34,6.33,6.33,0,0,0,1.13.13,8.43,8.43,0,0,0,2.61-.33,5.61,5.61,0,0,0,1.22-.51,4.14,4.14,0,0,0,1-.78A2.94,2.94,0,0,0,279.75,231.27Z" transform="translate(-25.07 -19.85)"/><path class="cls-1" d="M294.2,229.73s0,0.16,0,.41a6,6,0,0,1-.2,1,6.45,6.45,0,0,1-.55,1.36,5.72,5.72,0,0,1-1.1,1.41,6,6,0,0,1-1.83,1.16,9,9,0,0,1-2.73.62,15.53,15.53,0,0,1-3.81-.21l-0.19-13.22a12.78,12.78,0,0,1,3.83-.12,8.19,8.19,0,0,1,2.75.85,6.46,6.46,0,0,1,1.85,1.48,7.64,7.64,0,0,1,1.13,1.76,9.66,9.66,0,0,1,.59,1.7,8.58,8.58,0,0,1,.23,1.27C294.18,229.54,294.2,229.71,294.2,229.73Zm-7.74,3.62a8.77,8.77,0,0,0,2.52-.44,5,5,0,0,0,1.52-.82,3.28,3.28,0,0,0,.78-0.92,2.34,2.34,0,0,0,.28-0.75c0-.19,0-0.3,0-0.31l0-.38a9.34,9.34,0,0,0-.12-1,9.84,9.84,0,0,0-.31-1.29,6.39,6.39,0,0,0-.59-1.33,3.92,3.92,0,0,0-1-1.1,3.15,3.15,0,0,0-1.42-.6,4.52,4.52,0,0,0-2,.16Z" transform="translate(-25.07 -19.85)"/><path class="cls-1" d="M302.73,222.09h0.41a9.25,9.25,0,0,1,1,.12,10.91,10.91,0,0,1,1.37.31,6.93,6.93,0,0,1,1.42.6,3.79,3.79,0,0,1,1.16,1l-1.2,1.76a9.28,9.28,0,0,0-1.82-.86,11.24,11.24,0,0,0-1.5-.4,6.12,6.12,0,0,0-1-.12h-0.38A5.22,5.22,0,0,0,298.7,226a4.54,4.54,0,0,0-.91,1.29,3.68,3.68,0,0,0-.36,1.27,4.45,4.45,0,0,0,0,.9,5.41,5.41,0,0,0,.25,1,5.14,5.14,0,0,0,.51,1,4,4,0,0,0,.81.93,4.26,4.26,0,0,0,1.17.69,4.78,4.78,0,0,0,1.58.31h0.38a8.52,8.52,0,0,0,.94-0.07,6.89,6.89,0,0,0,1.2-.25,4.07,4.07,0,0,0,1.15-.56,2.17,2.17,0,0,0,.79-1l1.86,1.68a5.33,5.33,0,0,1-1.18.88,10.28,10.28,0,0,1-1.39.64,13,13,0,0,1-1.39.44q-0.68.17-1.22,0.27t-1.21.17a5.76,5.76,0,0,1-5-2.06,7.23,7.23,0,0,1-1-1.51,7.87,7.87,0,0,1-.59-1.71,8.19,8.19,0,0,1-.2-1.77,4.8,4.8,0,0,1,.31-1.71,6.38,6.38,0,0,1,.86-1.57,7.63,7.63,0,0,1,1.29-1.34,8.85,8.85,0,0,1,1.61-1,9.14,9.14,0,0,1,1.82-.68A7.52,7.52,0,0,1,302.73,222.09Z" transform="translate(-25.07 -19.85)"/><path class="cls-1" d="M314.22,222.09l6.59,13.47-2,.19-2.58-5-4.68-.55-1.61,5.54h-2.12l3.88-13.38ZM312,228.59l3.69,0.51-2.34-4.57Z" transform="translate(-25.07 -19.85)"/><path class="cls-1" d="M330.58,226.31a4.21,4.21,0,0,0-1.11-1.29,5.24,5.24,0,0,0-1.2-.68,5.76,5.76,0,0,0-1.36-.31l-1.67-.1a7.07,7.07,0,0,0-1.33,0,1.48,1.48,0,0,0-.86.36,1.3,1.3,0,0,0,.12,1.73,3.26,3.26,0,0,0,.93.6,8.6,8.6,0,0,0,1.31.46q0.73,0.2,1.51.36l1.56,0.31,1.42,0.3a3.51,3.51,0,0,1,1.11.45,3.44,3.44,0,0,1,.78.68,3.33,3.33,0,0,1,.5.8,5,5,0,0,1,.28.82,4.89,4.89,0,0,1,.12.73c0,0.22,0,.4,0,0.54s0,0.32,0,.56a2.55,2.55,0,0,1-.19.76,3.09,3.09,0,0,1-.52.82,3.26,3.26,0,0,1-1,.75,6.75,6.75,0,0,1-1.66.55,12.25,12.25,0,0,1-2.48.21h-0.33q-0.31,0-.87-0.1a10.36,10.36,0,0,1-1.22-.27,9.08,9.08,0,0,1-1.39-.52,6.67,6.67,0,0,1-1.37-.85,6,6,0,0,1-1.17-1.27,5.44,5.44,0,0,1-.78-1.78l2.38-.1a4.66,4.66,0,0,0,.93,1.47,4.75,4.75,0,0,0,1.14.9,5.13,5.13,0,0,0,1.12.46,5.42,5.42,0,0,0,.85.17l0.33,0,1,0a4.74,4.74,0,0,0,1.19-.21,2.45,2.45,0,0,0,1-.56A1.44,1.44,0,0,0,330,232a2.51,2.51,0,0,0-.23-1.15,2,2,0,0,0-.65-0.74,3.25,3.25,0,0,0-1-.44q-0.57-.16-1.25-0.28l-1.44-.25a14.73,14.73,0,0,1-1.55-.34,9.77,9.77,0,0,1-2-.74,5.49,5.49,0,0,1-1.25-.87,3.49,3.49,0,0,1-.73-1,5.4,5.4,0,0,1-.39-1.1,0.75,0.75,0,0,1,.11-0.41,2.6,2.6,0,0,1,.46-0.64,5.09,5.09,0,0,1,.88-0.72,6.17,6.17,0,0,1,1.37-.66,10.8,10.8,0,0,1,1.9-.46,13,13,0,0,1,2.5-.12l0.36,0q0.34,0,.92.12a11.93,11.93,0,0,1,1.24.27,8.74,8.74,0,0,1,1.33.48,5,5,0,0,1,1.19.75,3.16,3.16,0,0,1,.82,1.09,2.88,2.88,0,0,1,.21,1.49h-2.3Z" transform="translate(-25.07 -19.85)"/><path class="cls-1" d="M347.31,222.09v2.08h-5.76l0.1,11.58h-2l-0.19-11.48h-7l-0.19-2Z" transform="translate(-25.07 -19.85)"/></svg>