<svg version="1.1" id="Layer_1" xmlns="http://www.w3.org/2000/svg" xmlns:xlink="http://www.w3.org/1999/xlink" x="0px" y="0px"
	 viewBox="0 0 50.4 50.4" xml:space="preserve">
<title>support us on patreon</title>
<path class="cls-1" d="M25.2,0C25.2,0,25.2,0,25.2,0L25.2,0C11.3,0,0,11.3,0,25.2c0,0,0,0,0,0v25.2h5.8V25.2c0,0,0,0,0,0
	c0-10.7,8.7-19.3,19.4-19.3l0,0c10.4,0,18.9,8.1,19.4,18.5C45.1,35,36.8,44,26.1,44.5c-3.3,0-6-0.6-7.3-1.3v-8.3
	c1.9,1.2,4.1,1.9,6.3,1.9c6.4,0,11.6-5.2,11.6-11.6c0-6.4-5.2-11.6-11.6-11.6s-11.6,5.2-11.6,11.6v25.2h10.6h1.1
	c13.9,0,25.2-11.3,25.2-25.2C50.4,11.3,39.2,0,25.2,0z"/>
</svg>
