<svg id="Layer_1" data-name="Layer 1" xmlns="http://www.w3.org/2000/svg" viewBox="0 0 47.14 47.14"><defs><style>.cls-1{fill:#231f20;}</style></defs><title>rss feed</title><path id="Rss" class="cls-1" d="M246.21,71.23a2.05,2.05,0,0,1-1.54.67h-4.79a2.13,2.13,0,0,1-2.14-2A38.33,38.33,0,0,0,201.69,33.8a2.13,2.13,0,0,1-2-2.11V26.9a2.05,2.05,0,0,1,.67-1.54,2.08,2.08,0,0,1,1.47-.6h0.1a47.56,47.56,0,0,1,44.89,44.89A2,2,0,0,1,246.21,71.23Zm-17.11,0a2,2,0,0,1-1.57.7H223A2.11,2.11,0,0,1,220.91,70a21.42,21.42,0,0,0-19.28-19.28,2.11,2.11,0,0,1-1.94-2.11V44a2.17,2.17,0,0,1,2.14-2.14H202a30.3,30.3,0,0,1,27.69,27.69A2.16,2.16,0,0,1,229.11,71.19Zm-23,.7a6.43,6.43,0,1,1,6.43-6.43A6.43,6.43,0,0,1,206.11,71.9Z" transform="translate(-199.68 -24.76)"/></svg>