<svg id="Layer_1" data-name="Layer 1" xmlns="http://www.w3.org/2000/svg" viewBox="0 0 46.63 55.71"><title>subscribe in itunes</title><path id="Apple" class="cls-1" d="M180.06,69.52c-2.88,4.39-5.76,6.56-8.6,6.56A15.39,15.39,0,0,1,166.77,75a14.89,14.89,0,0,0-5.06-1.07A13,13,0,0,0,157,75a12.19,12.19,0,0,1-4.42,1.14c-3.45,0-6.76-2.91-10.08-8.67s-4.92-11.35-4.92-16.84c0-5.12,1.27-9.27,3.78-12.52a11.56,11.56,0,0,1,9.51-4.82,22.07,22.07,0,0,1,5.93,1,21.31,21.31,0,0,0,4.62,1,16.76,16.76,0,0,0,4.79-1.14A18.9,18.9,0,0,1,172,33.06a12.22,12.22,0,0,1,7.13,2.18,17,17,0,0,1,3.48,3.35,21.42,21.42,0,0,0-3.82,4,11.9,11.9,0,0,0-2.18,6.93,12.8,12.8,0,0,0,2.31,7.47,10.22,10.22,0,0,0,5.29,4.22A33.26,33.26,0,0,1,180.06,69.52Zm-9.44-43.09a13.75,13.75,0,0,1-3.11,4.62,9.48,9.48,0,0,1-3.62,2.41,17.67,17.67,0,0,1-3.48.57,15.29,15.29,0,0,1,2.61-8.6c1.67-2.41,4.49-4.05,8.37-5,0.07,0.3.13,0.54,0.17,0.74s0,0.44,0,.67A12.82,12.82,0,0,1,170.62,26.43Z" transform="translate(-137.54 -20.47)"/></svg>