<svg id="Layer_1" data-name="Layer 1" xmlns="http://www.w3.org/2000/svg" viewBox="0 0 64.28 51.42"><defs><style>.cls-1{fill:#231f20;}</style></defs><title>one time donation on cash.me</title><path id="Cash" class="cls-1" d="M326.1,30.12V70.83a5.37,5.37,0,0,1-5.36,5.36H267.18a5.37,5.37,0,0,1-5.36-5.36V30.12a5.37,5.37,0,0,1,5.36-5.36h53.56A5.37,5.37,0,0,1,326.1,30.12Zm-60,0v7.5h55.71v-7.5A1.1,1.1,0,0,0,320.74,29H267.18A1.1,1.1,0,0,0,266.11,30.12Zm55.71,40.71V50.47H266.11V70.83a1.1,1.1,0,0,0,1.07,1.07h53.56A1.1,1.1,0,0,0,321.81,70.83Zm-51.42-7.5H279v4.29h-8.57V63.33Zm12.86,0H296.1v4.29H283.25V63.33Z" transform="translate(-261.82 -24.76)"/></svg>